<svg width="168" height="39" viewBox="0 0 168 39" fill="none" xmlns="http://www.w3.org/2000/svg">
<path d="M58.616 12.32V14.552H51.536V19.472H57.056V21.704H51.536V29H48.8V12.32H58.616ZM73.2716 22.064C73.2716 22.56 73.2396 23.008 73.1756 23.408H63.0716C63.1516 24.464 63.5436 25.312 64.2476 25.952C64.9516 26.592 65.8156 26.912 66.8396 26.912C68.3116 26.912 69.3516 26.296 69.9596 25.064H72.9116C72.5116 26.28 71.7836 27.28 70.7276 28.064C69.6876 28.832 68.3916 29.216 66.8396 29.216C65.5756 29.216 64.4396 28.936 63.4316 28.376C62.4396 27.8 61.6556 27 61.0796 25.976C60.5196 24.936 60.2396 23.736 60.2396 22.376C60.2396 21.016 60.5116 19.824 61.0556 18.8C61.6156 17.76 62.3916 16.96 63.3836 16.4C64.3916 15.84 65.5436 15.56 66.8396 15.56C68.0876 15.56 69.1996 15.832 70.1756 16.376C71.1516 16.92 71.9116 17.688 72.4556 18.68C72.9996 19.656 73.2716 20.784 73.2716 22.064ZM70.4156 21.2C70.3996 20.192 70.0396 19.384 69.3356 18.776C68.6316 18.168 67.7596 17.864 66.7196 17.864C65.7756 17.864 64.9676 18.168 64.2956 18.776C63.6236 19.368 63.2236 20.176 63.0956 21.2H70.4156ZM78.7001 11.24V29H75.9641V11.24H78.7001ZM83.6842 14.024C83.1882 14.024 82.7722 13.856 82.4362 13.52C82.1002 13.184 81.9322 12.768 81.9322 12.272C81.9322 11.776 82.1002 11.36 82.4362 11.024C82.7722 10.688 83.1882 10.52 83.6842 10.52C84.1642 10.52 84.5722 10.688 84.9082 11.024C85.2442 11.36 85.4122 11.776 85.4122 12.272C85.4122 12.768 85.2442 13.184 84.9082 13.52C84.5722 13.856 84.1642 14.024 83.6842 14.024ZM85.0282 15.776V29H82.2922V15.776H85.0282ZM91.0443 26.768H97.0443V29H87.8763V26.768L93.9003 18.008H87.8763V15.776H97.0443V18.008L91.0443 26.768ZM119.856 29H117.12L108.888 16.544V29H106.152V12.296H108.888L117.12 24.728V12.296H119.856V29ZM122.536 22.328C122.536 21 122.808 19.824 123.352 18.8C123.912 17.776 124.664 16.984 125.608 16.424C126.568 15.848 127.624 15.56 128.776 15.56C129.816 15.56 130.72 15.768 131.488 16.184C132.272 16.584 132.896 17.088 133.36 17.696V15.776H136.12V29H133.36V27.032C132.896 27.656 132.264 28.176 131.464 28.592C130.664 29.008 129.752 29.216 128.728 29.216C127.592 29.216 126.552 28.928 125.608 28.352C124.664 27.76 123.912 26.944 123.352 25.904C122.808 24.848 122.536 23.656 122.536 22.328ZM133.36 22.376C133.36 21.464 133.168 20.672 132.784 20C132.416 19.328 131.928 18.816 131.32 18.464C130.712 18.112 130.056 17.936 129.352 17.936C128.648 17.936 127.992 18.112 127.384 18.464C126.776 18.8 126.28 19.304 125.896 19.976C125.528 20.632 125.344 21.416 125.344 22.328C125.344 23.24 125.528 24.04 125.896 24.728C126.28 25.416 126.776 25.944 127.384 26.312C128.008 26.664 128.664 26.84 129.352 26.84C130.056 26.84 130.712 26.664 131.32 26.312C131.928 25.96 132.416 25.448 132.784 24.776C133.168 24.088 133.36 23.288 133.36 22.376ZM142.906 18.008V25.328C142.906 25.824 143.018 26.184 143.242 26.408C143.482 26.616 143.882 26.72 144.442 26.72H146.122V29H143.962C142.73 29 141.786 28.712 141.13 28.136C140.474 27.56 140.146 26.624 140.146 25.328V18.008H138.586V15.776H140.146V12.488H142.906V15.776H146.122V18.008H142.906ZM147.732 22.328C147.732 21 148.004 19.824 148.548 18.8C149.108 17.776 149.86 16.984 150.804 16.424C151.764 15.848 152.82 15.56 153.972 15.56C155.012 15.56 155.916 15.768 156.684 16.184C157.468 16.584 158.092 17.088 158.556 17.696V15.776H161.316V29H158.556V27.032C158.092 27.656 157.46 28.176 156.66 28.592C155.86 29.008 154.948 29.216 153.924 29.216C152.788 29.216 151.748 28.928 150.804 28.352C149.86 27.76 149.108 26.944 148.548 25.904C148.004 24.848 147.732 23.656 147.732 22.328ZM158.556 22.376C158.556 21.464 158.364 20.672 157.98 20C157.612 19.328 157.124 18.816 156.516 18.464C155.908 18.112 155.252 17.936 154.548 17.936C153.844 17.936 153.188 18.112 152.58 18.464C151.972 18.8 151.476 19.304 151.092 19.976C150.724 20.632 150.54 21.416 150.54 22.328C150.54 23.24 150.724 24.04 151.092 24.728C151.476 25.416 151.972 25.944 152.58 26.312C153.204 26.664 153.86 26.84 154.548 26.84C155.252 26.84 155.908 26.664 156.516 26.312C157.124 25.96 157.612 25.448 157.98 24.776C158.364 24.088 158.556 23.288 158.556 22.376ZM167.645 11.24V29H164.909V11.24H167.645Z" fill="#161212"/>
<g clip-path="url(#clip0_39340_782)">
<path d="M12.8742 7.66518C12.7046 9.52846 19.5248 10.1534 22.5981 10.4356C25.6714 10.7178 32.3522 11.3311 32.5218 9.46783C32.6914 7.60455 29.8388 3.95261 25.0837 2.03335C14.5305 -2.22724 5.91696 2.39249 3.93547 3.08976C3.15961 3.36494 12.9323 7.04253 12.8742 7.66518Z" fill="#DA2535"/>
<path d="M0.0116129 2.55123C-0.127765 4.09269 1.00352 5.45925 2.54131 5.59917C4.07911 5.73909 5.43804 4.6034 5.57742 3.06194C5.7168 1.51814 4.58552 0.153911 3.05004 0.0116581C1.51224 -0.128263 0.153313 1.00743 0.0116129 2.55123Z" fill="white"/>
<path d="M9.87462 18.3412C9.41235 27.8395 15.4102 29.3297 22.2397 29.3297C29.0692 29.3297 34.6048 25.7454 34.6048 18.3412C34.6048 10.937 29.0553 8.00336 22.2281 8.00336C15.3963 8.00336 10.323 9.14605 9.87462 18.3412Z" fill="white"/>
<path d="M11.2992 19.5355C10.8973 29.0338 16.0961 30.5239 22.0104 30.5239C27.9269 30.5239 32.7215 26.9396 32.7215 19.5355C32.7215 12.1336 27.9269 8.54932 22.0104 8.54932C16.0938 8.54932 11.6871 10.3403 11.2992 19.5355Z" fill="#F8C1A5"/>
<path d="M14.1446 21.6528C14.1446 22.371 15.0947 22.9517 16.2655 22.9517C17.4362 22.9517 18.3863 22.371 18.3863 21.6528C18.3863 20.9345 17.4362 20.3538 16.2655 20.3538C15.0947 20.3538 14.1446 20.9345 14.1446 21.6528Z" fill="#FBE1DB"/>
<path d="M25.0063 21.6527C25.0063 22.371 25.9564 22.9516 27.1272 22.9516C28.298 22.9516 29.2481 22.371 29.2481 21.6527C29.2481 20.9344 28.298 20.3538 27.1272 20.3538C25.9564 20.3538 25.0063 20.9344 25.0063 21.6527Z" fill="#FBE1DB"/>
<path d="M9.02002 20.081C9.02002 22.1029 10.0398 22.42 11.2988 22.42C12.5579 22.42 13.5777 21.6574 13.5777 20.081C13.5777 18.5069 12.5579 17.7443 11.2988 17.7443C10.0398 17.7443 9.02002 18.0591 9.02002 20.081Z" fill="#F8C1A5"/>
<path d="M30.4425 20.0811C30.4425 22.1029 31.4623 22.4201 32.7213 22.4201C33.9804 22.4201 35.0002 21.6575 35.0002 20.0811C35.0002 18.507 33.9804 17.7444 32.7213 17.7444C31.4623 17.7444 30.4425 18.0592 30.4425 20.0811Z" fill="#F8C1A5"/>
<path d="M15.9493 22.1797C17.4685 21.7413 19.536 21.6737 21.615 21.655V25.4119C21.1365 25.3489 20.7927 25.3093 20.4071 25.4306C17.659 26.2981 16.7786 25.3653 15.2873 25.2627C14.5904 25.2137 13.2709 25.4422 13.2709 25.4422C13.2709 25.4422 13.5776 22.8653 15.9493 22.1797Z" fill="#F0F8FD"/>
<path d="M28.2306 22.18C26.7114 21.7416 24.644 21.6739 22.5649 21.6553V25.4122C23.0435 25.3492 23.3873 25.3095 23.7729 25.4308C26.5209 26.2983 27.4013 25.3655 28.8927 25.2629C29.5896 25.2139 30.909 25.4425 30.909 25.4425C30.909 25.4425 30.6 22.8656 28.2306 22.18Z" fill="#F0F8FD"/>
<path d="M22.0105 13.1455C16.6677 13.1455 12.2517 13.6889 12.7349 19.5352H11.2993C11.6873 9.88302 16.0962 8.00342 22.0105 8.00342C27.927 8.00342 32.7216 11.765 32.7216 19.5352H31.4788C31.8459 14.2742 26.3474 13.1455 22.0105 13.1455Z" fill="white"/>
<path d="M32.7211 19.5353C32.4865 23.607 34.5794 26.5034 34.6027 29.8988C34.6329 34.3646 31.7547 38.7815 22.0099 38.7815C11.7332 38.7815 8.81784 34.1734 9.01994 29.3275C9.15467 26.0836 11.2895 23.3459 11.2988 19.5353C11.2988 19.5353 12.6205 17.6651 12.7343 19.5353C12.9922 23.7749 17.3268 21.6528 21.9124 21.6528C26.8324 21.6528 30.8186 22.9517 31.4783 19.5353C31.6827 18.4813 32.7211 19.5353 32.7211 19.5353Z" fill="white"/>
<path d="M19.9449 24.6613C19.9449 25.5172 20.8253 26.2098 21.9124 26.2098C22.9996 26.2098 23.88 25.5172 23.88 24.6613C23.88 23.8055 22.9996 23.1129 21.9124 23.1129C20.8253 23.1129 19.9449 23.8078 19.9449 24.6613Z" fill="#DA2535"/>
<path d="M13.629 24.8873C13.629 24.8873 14.6766 24.4185 16.1122 24.8103C17.3666 25.1508 18.9067 25.8761 20.3028 25.4656C22.3981 24.85 22.0869 22.8234 22.0869 22.8234C22.0869 22.8234 20.7674 21.3356 18.5165 21.3426C14.7463 21.3519 13.629 24.8873 13.629 24.8873Z" fill="white"/>
<path d="M30.3889 24.8873C30.3889 24.8873 29.3412 24.4185 27.9056 24.8103C26.6513 25.1508 25.1111 25.8761 23.715 25.4656C21.6197 24.85 21.9287 22.8234 21.9287 22.8234C21.9287 22.8234 23.2481 21.3356 25.4991 21.3426C29.2739 21.3519 30.3889 24.8873 30.3889 24.8873Z" fill="white"/>
<path d="M19.2598 21.2235C19.2598 22.2426 20.4468 23.0682 21.9126 23.0682C23.3784 23.0682 24.5654 22.2426 24.5654 21.2235C24.5654 20.2044 23.3784 19.3789 21.9126 19.3789C20.4468 19.3789 19.2598 20.2068 19.2598 21.2235Z" fill="#F2937B"/>
<path d="M10.2327 15.5498C10.5347 16.0955 16.5233 14.2136 22.0101 14.111C27.8314 14.0014 33.6829 16.1445 34.2846 15.4496C35.453 14.097 33.892 9.87371 32.7212 8.95955C30.0057 6.83742 14.1446 7.35513 12.2281 8.55145C11.062 9.27671 9.43592 14.111 10.2327 15.5498Z" fill="white"/>
<path d="M10.4394 15.2C11.5661 14.7523 12.6532 14.1646 13.8054 13.7845C15.2851 13.2948 16.8113 13.0662 18.3631 12.9613C21.6872 12.7374 25.0671 12.875 28.3657 13.3461C29.9105 13.5676 31.432 13.8918 32.9675 14.1576C33.5366 14.2556 34.1499 14.2066 34.6958 14.0084C34.6934 14.6007 34.5726 15.1137 34.2823 15.4472C33.6806 16.1445 27.8291 13.999 22.0078 14.1086C16.5209 14.2136 10.5324 16.0932 10.2304 15.5475C10.1932 15.4775 10.1607 15.3982 10.1328 15.3143C10.2373 15.2793 10.3396 15.242 10.4394 15.2Z" fill="#F0F8FD"/>
<path opacity="0.3" d="M20.2954 20.2443C20.2954 20.6361 21.0202 20.9509 21.9122 20.9509C22.8042 20.9509 23.529 20.6338 23.529 20.2443C23.529 19.8526 22.8065 19.5354 21.9122 19.5354C21.0202 19.5354 20.2954 19.8526 20.2954 20.2443Z" fill="white"/>
<path d="M16.9253 18.234C16.9253 18.803 17.3852 19.2671 17.9544 19.2671C18.5212 19.2671 18.9834 18.8054 18.9834 18.234C18.9834 17.665 18.5235 17.2009 17.9544 17.2009C17.3876 17.2009 16.9253 17.6627 16.9253 18.234Z" fill="#2F120C"/>
<path d="M25.9034 18.234C25.9034 18.803 26.3634 19.2671 26.9325 19.2671C27.5016 19.2671 27.9616 18.8054 27.9616 18.234C27.9616 17.665 27.5016 17.2009 26.9325 17.2009C26.3657 17.2009 25.9034 17.6627 25.9034 18.234Z" fill="#2F120C"/>
<path d="M14.725 16.6553C15.2686 16.9678 17.0735 15.8368 19.0387 16.1096C19.9865 16.2402 19.5893 14.4562 19.0387 14.279C17.3639 13.7333 15.5799 14.1181 14.7087 15.2608C13.991 16.2006 14.1814 16.3428 14.725 16.6553Z" fill="white"/>
<path d="M29.1344 16.3916C28.5908 16.7041 26.7859 15.5731 24.8207 15.8459C23.8729 15.9765 24.2724 14.1925 24.8207 14.0153C26.4955 13.4696 28.2796 13.8544 29.1507 14.9971C29.8708 15.9369 29.678 16.0792 29.1344 16.3916Z" fill="white"/>
</g>
<defs>
<clipPath id="clip0_39340_782">
<rect width="35" height="38.7838" fill="white"/>
</clipPath>
</defs>
</svg>
